<?xml version="1.0" encoding="utf-8"?>
<!-- Generator: Adobe Illustrator 26.0.3, SVG Export Plug-In . SVG Version: 6.00 Build 0)  -->
<svg version="1.1" id="Livello_1" xmlns="http://www.w3.org/2000/svg" xmlns:xlink="http://www.w3.org/1999/xlink" x="0px" y="0px"
	 viewBox="0 0 2000 587" style="enable-background:new 0 0 2000 587;" xml:space="preserve">
<style type="text/css">
	.st0{fill:#FFFFFF;}
</style>
<g>
	<g>
		<path class="st0" d="M1552.4,81h-0.6h-0.6h-47.4v11.4c-55.2,9.6-171,10-233,1.2V81h-70.2v376l70.2,39.6V164.4
			c19.2,2.8,61.8,4.6,81,5.4v268.9l70.1-39.6V169.8c20.4-1.2,62.6-3.2,81.8-6V457l70.2,39.6l0.6-415.7H1552.4z"/>
	</g>
	<g>
		<polygon class="st0" points="69.7,80.7 109.4,150.9 69.7,80.7 		"/>
		<path class="st0" d="M426.1,80.7H69.7l39.6,70.2h43.8V266H69.7l33.2,58.8h50.2c-0.8,21.6-3.6,38.3-8.4,50.1
			c-4.8,11.8-15.6,27.7-32.4,47.7l-35.5,38.1l63.1,35.6l25.2-27.6c22.8-27.2,38-50.5,45.6-69.9c7.6-19.4,11.8-44.1,12.6-74.1h132.6
			v131.3l70.2,39.6V80.7z M223.3,266V150.9h132.6V266H223.3z"/>
	</g>
	<g>
		<path class="st0" d="M783.3,368.9l-0.6-2.4c-4.8-12.4-8.5-21.6-11.1-27.6c-2.6-6-6.4-13.6-11.4-22.8c-5-9.2-10.2-16.6-15.6-22.2
			c-5.4-5.6-12.3-11.5-20.7-17.7c-8.4-6.2-18-11.9-28.8-17.1l-69-19.8l178.7-97.8l-72.1-40.7l-178.6,97.7v-77.9L484.1,81v415.1
			l70.2-39.6V291.5l114,33c12.8,6,22,13,27.6,21c5.6,8,12.6,23.2,21,45.6l33,106.2l62.7-35.4L783.3,368.9z"/>
	</g>
	<g>
		<path class="st0" d="M1142.7,429.5V81l-70.2,39.6v294.4c-30-2.8-100.8-2.8-134,0V81l-70.2,39.6v304c-9.6,2-17.2,3.8-22.8,5.4
			l18.6,67.8c2-0.4,5.3-1.1,9.9-2.1c4.6-1,13.2-2.7,25.8-5.1c12.6-2.4,25.2-4.1,37.8-5.1c12.6-1,27.8-1.8,45.6-2.4
			c17.8-0.6,73.7,0.3,89.3,2.7v20.4h70.2v-10.8l23.4-57.6C1158.5,434.7,1150.7,431.9,1142.7,429.5z"/>
	</g>
	<g>
		<path class="st0" d="M1906.9,429.5V81l-70.2,39.6v294.4c-30-2.8-100.8-2.8-134,0V81l-70.2,39.6v304c-9.6,2-17.2,3.8-22.8,5.4
			l18.6,67.8c2-0.4,5.3-1.1,9.9-2.1c4.6-1,13.2-2.7,25.8-5.1c12.6-2.4,25.2-4.1,37.8-5.1c12.6-1,27.8-1.8,45.6-2.4
			c17.8-0.6,73.7,0.3,89.3,2.7v20.4h70.2v-10.8l23.4-57.6C1922.7,434.7,1914.9,431.9,1906.9,429.5z"/>
	</g>
</g>
</svg>
